<?xml version="1.0" standalone="no"?>
<!DOCTYPE svg PUBLIC "-//W3C//DTD SVG 20010904//EN"
 "http://www.w3.org/TR/2001/REC-SVG-20010904/DTD/svg10.dtd">
<svg version="1.0" xmlns="http://www.w3.org/2000/svg"
 width="1000.000000pt" height="1000.000000pt" viewBox="0 0 1000.000000 1000.000000"
 preserveAspectRatio="xMidYMid meet">
<metadata>
Created by potrace 1.11, written by Peter Selinger 2001-2013
</metadata>
<g transform="translate(0.000000,1000.000000) scale(0.100000,-0.100000)"
fill="#000000" stroke="none">
<path d="M917 7264 c-4 -4 -7 -103 -7 -219 l0 -212 158 -27 c86 -15 212 -36
280 -48 l122 -21 -2 -1961 -3 -1961 -244 -41 c-134 -23 -259 -45 -277 -49
l-34 -6 0 -215 0 -215 1333 4 c1442 3 1388 2 1630 58 531 124 890 438 1021
893 60 207 73 560 27 756 -105 455 -419 795 -841 913 -44 12 -80 24 -80 27 0
3 26 15 58 27 287 112 547 373 638 641 41 120 54 198 54 329 0 367 -116 680
-331 893 -181 180 -447 315 -747 380 -241 52 -251 53 -1542 57 -663 2 -1209 1
-1213 -3z m2346 -535 c192 -17 357 -65 485 -140 79 -47 200 -171 239 -244 91
-174 116 -431 63 -641 -69 -268 -274 -457 -577 -531 -59 -14 -156 -17 -700
-20 l-633 -4 0 789 c0 434 3 792 7 795 11 12 986 8 1116 -4z m234 -2109 c156
-12 236 -32 350 -86 143 -68 260 -189 333 -346 71 -152 110 -411 91 -603 -14
-141 -33 -212 -86 -320 -91 -186 -241 -314 -450 -384 -175 -58 -214 -61 -937
-61 l-658 0 0 898 c0 494 3 902 7 905 10 11 1212 8 1350 -3z"/>
<path d="M7330 7050 c0 -121 3 -220 8 -220 4 0 124 -20 267 -45 143 -25 263
-45 268 -45 4 0 6 -737 5 -1637 l-3 -1638 -23 -85 c-31 -113 -109 -270 -171
-347 -64 -78 -173 -164 -265 -208 -115 -55 -228 -78 -386 -78 -382 0 -654 141
-784 407 -55 112 -83 218 -98 381 l-12 125 -325 0 -324 0 6 -147 c6 -170 25
-285 67 -416 111 -348 364 -606 742 -756 187 -74 469 -121 730 -121 544 0 976
193 1251 558 118 158 190 317 239 530 l22 97 3 1660 c2 913 7 1663 11 1667 5
5 520 98 545 98 4 0 7 99 7 220 l0 220 -890 0 -890 0 0 -220z"/>
</g>
</svg>
