<?xml version="1.0" encoding="UTF-8"?>
<svg width="20px" height="19px" viewBox="0 0 20 19" version="1.1" xmlns="http://www.w3.org/2000/svg" xmlns:xlink="http://www.w3.org/1999/xlink">
    <!-- Generator: Sketch 41.2 (35397) - http://www.bohemiancoding.com/sketch -->
    <title>icon-linkedin-black</title>
    <desc>Created with Sketch.</desc>
    <defs></defs>
    <g id="Page-1" stroke="none" stroke-width="1" fill="none" fill-rule="evenodd">
        <g id="Desktop-Copy" transform="translate(-24.000000, -675.000000)" fill="#777777">
            <g id="Contact-us-section" transform="translate(24.000000, 632.000000)">
                <g id="Linkedin" transform="translate(0.000000, 43.000000)">
                    <path d="M20,18.1818182 L15.5797272,18.1818182 L15.5797272,11.790182 C15.5797272,10.11718 14.8882879,8.97506796 13.3678269,8.97506796 C12.2048448,8.97506796 11.5580903,9.74578984 11.2570555,10.4885701 C11.1441675,10.7551794 11.1618062,11.1265695 11.1618062,11.4979597 L11.1618062,18.1818182 L6.7826905,18.1818182 C6.7826905,18.1818182 6.83913452,6.8596576 6.7826905,5.83047611 L11.1618062,5.83047611 L11.1618062,7.76892314 C11.420508,6.92136192 12.8198495,5.7117244 15.0529163,5.7117244 C17.8233772,5.7117244 20,7.48834312 20,11.314011 L20,18.1818182 L20,18.1818182 Z M2.35418627,4.28553965 L2.32596425,4.28553965 C0.914863594,4.28553965 0,3.34134713 0,2.14451617 C0,0.924400566 0.94190969,0 2.38123236,0 C3.81937912,0 4.70366886,0.922072101 4.73189087,2.14102348 C4.73189087,3.33785444 3.81937912,4.28553965 2.35418627,4.28553965 L2.35418627,4.28553965 L2.35418627,4.28553965 Z M0.504468485,5.83047611 L4.40263405,5.83047611 L4.40263405,18.1818182 L0.504468485,18.1818182 L0.504468485,5.83047611 L0.504468485,5.83047611 Z" id="icon-linkedin"></path>
                </g>
            </g>
        </g>
    </g>
</svg>