<?xml version="1.0" encoding="UTF-8"?>
<svg width="2373px" height="279px" viewBox="0 0 2373 279" version="1.1" xmlns="http://www.w3.org/2000/svg" xmlns:xlink="http://www.w3.org/1999/xlink">
    <!-- Generator: Sketch 41.2 (35397) - http://www.bohemiancoding.com/sketch -->
    <title>logo</title>
    <desc>Created with Sketch.</desc>
    <defs></defs>
    <g id="Page-1" stroke="none" stroke-width="1" fill="none" fill-rule="evenodd">
        <g id="Tablet-Portrait" transform="translate(-325.000000, -3725.000000)" fill="#002036">
            <g id="vector-logo" transform="translate(325.000000, 3725.000000)">
                <g id="logo">
                    <path d="M107.272541,230.662939 L107.272541,0.375036296 L0.301776734,207.447499 L67.5371399,278.55746 C67.9919409,254.898758 84.8944408,235.272427 107.272541,230.662939 Z" id="Combined-Shape"></path>
                    <path d="M127.318234,230.632588 L127.318234,0.375036296 L234.288998,207.447499 L167.198948,278.403772 C166.672921,254.761538 149.721493,235.175827 127.318234,230.632588 Z" id="Combined-Shape"></path>
                    <path d="M310.12,1.36 L412.2,1.36 C444.173493,1.36 460.16,15.8798548 460.16,44.92 L460.16,133.36 C460.16,162.400145 444.173493,176.92 412.2,176.92 L360.72,176.92 L360.72,279 L310.12,279 L310.12,1.36 Z M409.56,126.32 L409.56,51.96 C409.56,47.2666432 408.680009,44.1133414 406.92,42.5 C405.159991,40.8866586 401.933357,40.08 397.24,40.08 L360.72,40.08 L360.72,138.2 L397.24,138.2 C401.933357,138.2 405.159991,137.393341 406.92,135.78 C408.680009,134.166659 409.56,131.013357 409.56,126.32 Z M568.986666,170.76 L568.986666,279 L518.386666,279 L518.386666,1.36 L620.466666,1.36 C652.440159,1.36 668.426666,15.8798548 668.426666,44.92 L668.426666,127.2 C668.426666,151.253454 657.720106,165.333313 636.306666,169.44 L682.506666,279 L627.946666,279 L585.706666,170.76 L568.986666,170.76 Z M568.986666,40.08 L568.986666,133.36 L605.506666,133.36 C610.200023,133.36 613.426657,132.553341 615.186666,130.94 C616.946675,129.326659 617.826666,126.173357 617.826666,121.48 L617.826666,51.96 C617.826666,47.2666432 616.946675,44.1133414 615.186666,42.5 C613.426657,40.8866586 610.200023,40.08 605.506666,40.08 L568.986666,40.08 Z M779.453332,1.36 L833.133332,1.36 C865.106825,1.36 881.093332,15.8798548 881.093332,44.92 L881.093332,235.44 C881.093332,264.480145 865.106825,279 833.133332,279 L779.453332,279 C747.479839,279 731.493332,264.480145 731.493332,235.44 L731.493332,44.92 C731.493332,15.8798548 747.479839,1.36 779.453332,1.36 Z M830.493332,228.4 L830.493332,51.96 C830.493332,47.2666432 829.613341,44.1133414 827.853332,42.5 C826.093323,40.8866586 822.866689,40.08 818.173332,40.08 L794.853332,40.08 C789.86664,40.08 786.493341,40.8866586 784.733332,42.5 C782.973323,44.1133414 782.093332,47.2666432 782.093332,51.96 L782.093332,228.4 C782.093332,233.093357 782.973323,236.246659 784.733332,237.86 C786.493341,239.473341 789.86664,240.28 794.853332,240.28 L818.173332,240.28 C822.866689,240.28 826.093323,239.473341 827.853332,237.86 C829.613341,236.246659 830.493332,233.093357 830.493332,228.4 Z M992.559998,279 L947.679998,279 L947.679998,1.36 L1003.12,1.36 L1049.76,166.36 L1096.4,1.36 L1151.84,1.36 L1151.84,279 L1107.4,279 L1107.4,84.08 L1070.44,218.72 L1029.52,218.72 L992.559998,84.52 L992.559998,279 Z M1271.22666,240.28 L1355.70666,240.28 L1355.70666,279 L1220.18666,279 L1220.18666,1.36 L1352.18666,1.36 L1352.18666,40.08 L1271.22666,40.08 L1271.22666,117.08 L1339.42666,117.08 L1339.42666,156.24 L1271.22666,156.24 L1271.22666,240.28 Z M1539.33333,1.36 L1539.33333,40.08 L1490.49333,40.08 L1490.49333,279 L1439.89333,279 L1439.89333,40.08 L1391.49333,40.08 L1391.49333,1.36 L1539.33333,1.36 Z M1696.12,1.36 L1746.72,1.36 L1746.72,279 L1696.12,279 L1696.12,160.64 L1638.92,160.64 L1638.92,279 L1588.32,279 L1588.32,1.36 L1638.92,1.36 L1638.92,121.92 L1696.12,121.92 L1696.12,1.36 Z M1865.66666,240.28 L1950.14666,240.28 L1950.14666,279 L1814.62666,279 L1814.62666,1.36 L1946.62666,1.36 L1946.62666,40.08 L1865.66666,40.08 L1865.66666,117.08 L1933.86666,117.08 L1933.86666,156.24 L1865.66666,156.24 L1865.66666,240.28 Z M2051.05333,1.36 L2104.73333,1.36 C2136.70682,1.36 2152.69333,15.8798548 2152.69333,44.92 L2152.69333,235.44 C2152.69333,264.480145 2136.70682,279 2104.73333,279 L2051.05333,279 C2019.07984,279 2003.09333,264.480145 2003.09333,235.44 L2003.09333,44.92 C2003.09333,15.8798548 2019.07984,1.36 2051.05333,1.36 Z M2102.09333,228.4 L2102.09333,51.96 C2102.09333,47.2666432 2101.21334,44.1133414 2099.45333,42.5 C2097.69332,40.8866586 2094.46669,40.08 2089.77333,40.08 L2066.45333,40.08 C2061.46664,40.08 2058.09334,40.8866586 2056.33333,42.5 C2054.57332,44.1133414 2053.69333,47.2666432 2053.69333,51.96 L2053.69333,228.4 C2053.69333,233.093357 2054.57332,236.246659 2056.33333,237.86 C2058.09334,239.473341 2061.46664,240.28 2066.45333,240.28 L2089.77333,240.28 C2094.46669,240.28 2097.69332,239.473341 2099.45333,237.86 C2101.21334,236.246659 2102.09333,233.093357 2102.09333,228.4 Z M2326.63999,1.36 L2372.83999,1.36 L2372.83999,279 L2325.31999,279 L2265.91999,95.08 L2265.91999,279 L2219.27999,279 L2219.27999,1.36 L2268.11999,1.36 L2326.63999,182.64 L2326.63999,1.36 Z" id="PROMETHEON"></path>
                </g>
            </g>
        </g>
    </g>
</svg>